<mxfile host="app.diagrams.net" modified="2024-03-22T00:29:17.403Z" agent="Mozilla/5.0 (X11; Ubuntu; Linux x86_64; rv:123.0) Gecko/20100101 Firefox/123.0" etag="kFjrDARlC2jv84d4KT7Q" version="24.0.7" type="device">
  <diagram name="Page-1" id="DWNIppCg2EWMCFQDjrHl">
    <mxGraphModel dx="666" dy="372" grid="1" gridSize="10" guides="1" tooltips="1" connect="1" arrows="1" fold="1" page="1" pageScale="1" pageWidth="850" pageHeight="1100" math="0" shadow="0">
      <root>
        <mxCell id="0" />
        <mxCell id="1" parent="0" />
        <mxCell id="67nBAXnxI9l0koTwkT_1-10" value="" style="rounded=0;whiteSpace=wrap;html=1;movable=0;resizable=0;rotatable=0;deletable=0;editable=0;locked=1;connectable=0;" vertex="1" parent="1">
          <mxGeometry x="420" y="620" width="250" height="440" as="geometry" />
        </mxCell>
        <mxCell id="67nBAXnxI9l0koTwkT_1-12" value="Cliente" style="shape=umlActor;verticalLabelPosition=bottom;verticalAlign=top;html=1;outlineConnect=0;" vertex="1" parent="1">
          <mxGeometry x="310" y="780" width="30" height="60" as="geometry" />
        </mxCell>
        <mxCell id="67nBAXnxI9l0koTwkT_1-13" value="FuncionÃ¡rio" style="shape=umlActor;verticalLabelPosition=bottom;verticalAlign=top;html=1;outlineConnect=0;" vertex="1" parent="1">
          <mxGeometry x="770" y="780" width="30" height="60" as="geometry" />
        </mxCell>
        <mxCell id="67nBAXnxI9l0koTwkT_1-15" value="&lt;div&gt;UC-01&lt;/div&gt;&lt;div&gt;Realizar cadastro&lt;br&gt;&lt;/div&gt;" style="ellipse;whiteSpace=wrap;html=1;" vertex="1" parent="1">
          <mxGeometry x="440" y="630" width="100" height="70" as="geometry" />
        </mxCell>
        <mxCell id="67nBAXnxI9l0koTwkT_1-16" value="Sistema" style="text;html=1;align=center;verticalAlign=middle;whiteSpace=wrap;rounded=0;" vertex="1" parent="1">
          <mxGeometry x="510" y="600" width="60" height="30" as="geometry" />
        </mxCell>
        <mxCell id="67nBAXnxI9l0koTwkT_1-17" value="&lt;div&gt;UC-02&lt;/div&gt;&lt;div&gt;Realizar login&lt;/div&gt;" style="ellipse;whiteSpace=wrap;html=1;" vertex="1" parent="1">
          <mxGeometry x="440" y="710" width="100" height="70" as="geometry" />
        </mxCell>
        <mxCell id="67nBAXnxI9l0koTwkT_1-18" value="&lt;div&gt;UC-03&lt;/div&gt;&lt;div&gt;Atualizar&lt;/div&gt;&lt;div&gt;produtos&lt;br&gt;&lt;/div&gt;" style="ellipse;whiteSpace=wrap;html=1;" vertex="1" parent="1">
          <mxGeometry x="560" y="790" width="100" height="70" as="geometry" />
        </mxCell>
        <mxCell id="67nBAXnxI9l0koTwkT_1-20" value="&lt;div&gt;UC-05&lt;/div&gt;&lt;div&gt;Reservar&lt;/div&gt;&lt;div&gt;assado&lt;br&gt;&lt;/div&gt;" style="ellipse;whiteSpace=wrap;html=1;" vertex="1" parent="1">
          <mxGeometry x="440" y="870" width="100" height="70" as="geometry" />
        </mxCell>
        <mxCell id="67nBAXnxI9l0koTwkT_1-21" value="&lt;div&gt;UC-06&lt;/div&gt;&lt;div&gt;Consultar carne&lt;br&gt;&lt;/div&gt;" style="ellipse;whiteSpace=wrap;html=1;" vertex="1" parent="1">
          <mxGeometry x="440" y="960" width="100" height="70" as="geometry" />
        </mxCell>
        <mxCell id="67nBAXnxI9l0koTwkT_1-22" value="&lt;div&gt;UC-04&lt;/div&gt;&lt;div&gt;Agendar evento&lt;br&gt;&lt;/div&gt;" style="ellipse;whiteSpace=wrap;html=1;" vertex="1" parent="1">
          <mxGeometry x="440" y="790" width="100" height="70" as="geometry" />
        </mxCell>
        <mxCell id="67nBAXnxI9l0koTwkT_1-23" value="" style="endArrow=none;html=1;rounded=0;entryX=0.032;entryY=0.693;entryDx=0;entryDy=0;entryPerimeter=0;" edge="1" parent="1" target="67nBAXnxI9l0koTwkT_1-15">
          <mxGeometry width="50" height="50" relative="1" as="geometry">
            <mxPoint x="360" y="790" as="sourcePoint" />
            <mxPoint x="440" y="690" as="targetPoint" />
          </mxGeometry>
        </mxCell>
        <mxCell id="67nBAXnxI9l0koTwkT_1-24" value="" style="endArrow=none;html=1;rounded=0;entryX=0.056;entryY=0.72;entryDx=0;entryDy=0;entryPerimeter=0;" edge="1" parent="1" target="67nBAXnxI9l0koTwkT_1-17">
          <mxGeometry width="50" height="50" relative="1" as="geometry">
            <mxPoint x="360" y="810" as="sourcePoint" />
            <mxPoint x="440" y="760" as="targetPoint" />
          </mxGeometry>
        </mxCell>
        <mxCell id="67nBAXnxI9l0koTwkT_1-25" value="" style="endArrow=none;html=1;rounded=0;entryX=0;entryY=0.5;entryDx=0;entryDy=0;" edge="1" parent="1" target="67nBAXnxI9l0koTwkT_1-22">
          <mxGeometry width="50" height="50" relative="1" as="geometry">
            <mxPoint x="370" y="820" as="sourcePoint" />
            <mxPoint x="440" y="800" as="targetPoint" />
          </mxGeometry>
        </mxCell>
        <mxCell id="67nBAXnxI9l0koTwkT_1-27" value="" style="endArrow=none;html=1;rounded=0;entryX=0.035;entryY=0.317;entryDx=0;entryDy=0;entryPerimeter=0;" edge="1" parent="1" target="67nBAXnxI9l0koTwkT_1-20">
          <mxGeometry width="50" height="50" relative="1" as="geometry">
            <mxPoint x="370" y="830" as="sourcePoint" />
            <mxPoint x="440" y="880" as="targetPoint" />
          </mxGeometry>
        </mxCell>
        <mxCell id="67nBAXnxI9l0koTwkT_1-28" value="" style="endArrow=none;html=1;rounded=0;entryX=0.035;entryY=0.309;entryDx=0;entryDy=0;entryPerimeter=0;" edge="1" parent="1" target="67nBAXnxI9l0koTwkT_1-21">
          <mxGeometry width="50" height="50" relative="1" as="geometry">
            <mxPoint x="360" y="860" as="sourcePoint" />
            <mxPoint x="430" y="970" as="targetPoint" />
          </mxGeometry>
        </mxCell>
        <mxCell id="67nBAXnxI9l0koTwkT_1-30" value="" style="endArrow=none;html=1;rounded=0;exitX=1;exitY=0.5;exitDx=0;exitDy=0;" edge="1" parent="1" source="67nBAXnxI9l0koTwkT_1-18">
          <mxGeometry width="50" height="50" relative="1" as="geometry">
            <mxPoint x="370" y="800" as="sourcePoint" />
            <mxPoint x="750" y="820" as="targetPoint" />
          </mxGeometry>
        </mxCell>
      </root>
    </mxGraphModel>
  </diagram>
</mxfile>
